<svg xmlns="http://www.w3.org/2000/svg" viewBox="0 0 512 512">
  <path fill="#13aa52" d="M256 56C132.3 56 32 153.8 32 276.4c0 125.3 102.3 199 138.1 209.7 8.3 2.5 18.5-2.6 18.5-11.8v-28.9c0 0-7.8 2.2-18.3 2.2 -29.9 0-38.1-21.7-38.1-21.7 -6.4-16.8-15.3-21.4-15.3-21.4 -12.5-8.6 0.9-8.4 0.9-8.4 13.8 1 21.1 14.3 21.1 14.3 12.3 21.1 32.2 15 40 11.5 1.2-9 4.9-15 8.8-18.5 -30.7-3.5-62.9-15.5-62.9-68.7 0-15.2 5.4-27.5 14.3-37.2 -1.4-3.5-6.2-17.9 1.4-37.1 0 0 11.6-3.7 38.2 14.5 11.1-3.1 23-4.7 34.8-4.7 11.8 0 23.7 1.6 34.8 4.7 26.5-18.2 38.1-14.5 38.1-14.5 7.6 19.2 2.8 33.6 1.4 37.1 8.9 9.7 14.3 22.1 14.3 37.2 0 53.3-32.2 65.2-63 68.6 5 4.4 9.5 13.1 9.5 26.4v39.1c0 9.3 10.1 14.3 18.5 11.8 35.8-10.7 138.1-84.4 138.1-209.7C480 153.8 379.7 56 256 56z"/>
</svg>
